<svg width="600" height="100" viewBox="0 0 600 100" fill="none" xmlns="http://www.w3.org/2000/svg">
<rect width="600" height="100" fill="black"/>
<path d="M247.268 49.6666C247.268 47.3526 245.329 46.1957 241.452 46.1957C237.574 46.1957 235.635 47.3526 235.635 49.6666C235.635 51.9805 237.574 53.1375 241.452 53.1375C241.961 53.1375 242.373 53.1736 242.688 53.2459C243.003 53.3182 243.221 53.5713 243.342 54.0052C243.366 54.1354 243.378 54.2583 243.378 54.374C243.378 54.6343 243.281 54.8368 243.087 54.9814C242.797 55.1983 242.251 55.3068 241.452 55.3068C235.151 55.3068 232 53.4267 232 49.6666C232 45.9064 235.151 44.0264 241.452 44.0264C247.753 44.0264 250.903 45.9064 250.903 49.6666C250.903 51.9805 252.842 53.1375 256.72 53.1375C260.597 53.1375 262.536 51.9805 262.536 49.6666C262.536 47.3526 260.597 46.1957 256.72 46.1957C256.211 46.1957 255.799 46.1595 255.484 46.0872C255.169 46.0149 254.95 45.7618 254.829 45.328C254.805 45.1978 254.793 45.0749 254.793 44.9592C254.793 44.6989 254.89 44.4964 255.084 44.3518C255.375 44.1348 255.92 44.0264 256.72 44.0264C263.021 44.0264 266.171 45.9064 266.171 49.6666C266.171 53.4267 263.021 55.3068 256.72 55.3068C250.419 55.3068 247.268 53.4267 247.268 49.6666Z" fill="white"/>
<path d="M255.539 60.7301V56.283C255.539 55.9214 256.145 55.7407 257.357 55.7407C258.569 55.7407 259.174 55.9214 259.174 56.283V60.7301C259.174 62.4655 257.696 63.3333 254.739 63.3333H253.612C252.813 63.3333 252.413 62.9717 252.413 62.2486C252.413 61.5255 252.813 61.1639 253.612 61.1639H254.739C255.273 61.1639 255.539 61.0193 255.539 60.7301Z" fill="white"/>
<path d="M276.66 53.1375C276.418 51.9805 275.46 51.402 273.788 51.402C273.061 51.402 272.697 51.619 272.697 52.0528C272.697 52.7325 274.018 53.0941 276.66 53.1375ZM280.295 53.1375C282.985 53.0796 284.33 52.6458 284.33 51.8359C284.33 51.1417 282.391 50.4403 278.514 49.7317C274.636 49.0085 272.697 48.1191 272.697 47.0634C272.697 45.0387 274.515 44.0264 278.15 44.0264C282.27 44.0264 284.33 45.0026 284.33 46.9549C284.33 47.1719 284.064 47.2803 283.53 47.2803C282.997 47.2803 282.658 47.208 282.513 47.0634C282.028 46.4849 280.574 46.1957 278.15 46.1957C276.939 46.1957 276.333 46.4849 276.333 47.0634C276.333 47.5551 278.272 48.1625 282.149 48.8856C286.027 49.6087 287.965 50.5921 287.965 51.8359C287.965 54.0341 285.421 55.1911 280.331 55.3068V62.7909C280.331 63.1524 279.726 63.3332 278.514 63.3332C277.302 63.3332 276.696 63.1524 276.696 62.7909V55.3068C271.607 55.2055 269.062 54.1209 269.062 52.0528C269.062 50.6066 270.395 49.8835 273.061 49.8835C277.036 49.8835 279.447 50.9682 280.295 53.1375Z" fill="white"/>
<path d="M278.5 38.1693C276.44 38.1693 275.41 38.7116 275.41 39.7963C275.41 40.8809 276.428 41.5824 278.463 41.9005C279.457 42.0162 279.954 42.3272 279.954 42.8333C279.954 43.3395 279.469 43.5926 278.5 43.5926C274.259 43.5926 272.138 42.3272 272.138 39.7963C272.138 37.2654 274.259 36 278.5 36C282.741 36 284.861 37.1787 284.861 39.536C284.861 39.7529 284.316 39.8614 283.226 39.8614C282.135 39.8614 281.59 39.7529 281.59 39.536C281.59 38.6249 280.56 38.1693 278.5 38.1693Z" fill="white"/>
<path d="M325.467 61.164C327.115 61.164 327.939 60.6 327.939 59.4719V53.7016C327.939 53.3256 328.545 53.1375 329.757 53.1375C330.968 53.1375 331.574 53.3256 331.574 53.7016V59.4719C331.574 62.0462 329.538 63.3333 325.467 63.3333H297.003C292.907 63.3333 290.86 62.0462 290.86 59.4719V39.8614C290.86 37.2871 292.907 36 297.003 36H325.467C329.538 36 331.574 37.2871 331.574 39.8614V41.727C331.574 42.103 330.968 42.291 329.757 42.291C328.545 42.291 327.939 42.103 327.939 41.727V39.8614C327.939 38.7333 327.115 38.1693 325.467 38.1693H297.003C295.331 38.1693 294.495 38.7333 294.495 39.8614V59.4719C294.495 60.6 295.331 61.164 297.003 61.164H325.467Z" fill="white"/>
<path d="M322.111 44.0264C328.412 44.0264 331.563 45.9064 331.563 49.6666C331.563 53.4267 328.412 55.3068 322.111 55.3068C321.311 55.3068 320.766 55.1983 320.475 54.9814C320.281 54.8368 320.184 54.6343 320.184 54.374C320.184 54.2583 320.196 54.1354 320.221 54.0052C320.342 53.5713 320.56 53.3182 320.875 53.2459C321.19 53.1736 321.602 53.1375 322.111 53.1375C325.989 53.1375 327.927 51.9805 327.927 49.6666C327.927 47.3526 325.989 46.1957 322.111 46.1957C319.13 46.1957 317.022 46.5934 315.786 47.3888C316.125 48.0396 316.295 48.7988 316.295 49.6666C316.295 53.0362 314.21 54.9163 310.042 55.3068H309.788C309.521 55.3068 309.303 55.2706 309.133 55.1983C308.964 55.126 308.782 54.8512 308.588 54.374C308.515 54.1715 308.479 53.998 308.479 53.8533V53.7449C308.503 53.6003 308.539 53.4918 308.588 53.4195C308.733 53.2604 308.951 53.1664 309.242 53.1375C311.52 52.9639 312.659 51.807 312.659 49.6666C312.659 47.3526 310.721 46.1957 306.843 46.1957C302.965 46.1957 301.027 47.3526 301.027 49.6666C301.027 51.807 302.166 52.9639 304.444 53.1375C304.735 53.1664 304.953 53.2604 305.098 53.4195C305.147 53.4918 305.183 53.6003 305.207 53.7449V53.8533C305.207 53.998 305.171 54.1715 305.098 54.374C304.904 54.8512 304.722 55.126 304.553 55.1983C304.383 55.2706 304.165 55.3068 303.898 55.3068H303.644C299.476 54.9163 297.391 53.0362 297.391 49.6666C297.391 45.9064 300.542 44.0264 306.843 44.0264C310.381 44.0264 312.926 44.6193 314.477 45.8052C316.028 44.6193 318.573 44.0264 322.111 44.0264Z" fill="white"/>
<path d="M352.848 52.0094C353.042 52.0817 353.248 52.1685 353.466 52.2697C354.726 52.8482 356.629 53.1375 359.173 53.1375C363.051 53.1375 364.99 51.9805 364.99 49.6666C364.99 47.3526 363.051 46.1957 359.173 46.1957C358.665 46.1957 358.253 46.1595 357.937 46.0872C357.622 46.0149 357.404 45.7618 357.283 45.328C357.259 45.1978 357.247 45.0749 357.247 44.9592C357.247 44.6989 357.344 44.4964 357.538 44.3518C357.828 44.1348 358.374 44.0264 359.173 44.0264C365.475 44.0264 368.625 45.9064 368.625 49.6666C368.625 53.4267 365.475 55.3068 359.173 55.3068C356.023 55.3068 353.66 54.8368 352.085 53.8967C351.867 53.7666 351.673 53.6509 351.503 53.5496C349.952 54.7211 347.42 55.3068 343.905 55.3068C341.118 55.3068 339.18 54.8585 338.089 53.9618V59.4719C338.089 60.5999 338.925 61.1639 340.597 61.1639H362.518C364.166 61.1639 364.99 60.5999 364.99 59.4719V56.5216C364.99 56.2902 365.596 56.1745 366.807 56.1745C368.019 56.1745 368.625 56.2902 368.625 56.5216V59.4719C368.625 62.0461 366.589 63.3332 362.518 63.3332H340.597C336.502 63.3332 334.454 62.0461 334.454 59.4719V51.12C334.454 50.9465 334.745 50.8163 335.326 50.7295C335.496 50.7006 335.653 50.6861 335.799 50.6861C337.326 50.6861 338.113 50.7585 338.162 50.9031C339.228 52.3927 341.143 53.1375 343.905 53.1375C347.783 53.1375 349.722 51.9805 349.722 49.6666C349.722 47.3526 347.783 46.1957 343.905 46.1957C340.658 46.1957 338.743 46.9405 338.162 48.4301C338.113 48.5747 337.326 48.647 335.799 48.647C335.653 48.647 335.496 48.6325 335.326 48.6036C334.745 48.5168 334.454 48.3867 334.454 48.2131V48.1697C335.035 45.4075 338.186 44.0264 343.905 44.0264C350.207 44.0264 353.357 45.9064 353.357 49.6666C353.357 50.5488 353.187 51.3297 352.848 52.0094Z" fill="white"/>
<path d="M359.156 56.3915C361.58 56.3915 362.792 57.1146 362.792 58.5608C362.792 60.007 361.58 60.7301 359.156 60.7301C356.733 60.7301 355.521 60.007 355.521 58.5608C355.521 57.1146 356.733 56.3915 359.156 56.3915ZM360.247 58.5608C360.247 58.1269 359.884 57.91 359.156 57.91C358.429 57.91 358.066 58.1269 358.066 58.5608C358.066 58.9947 358.429 59.2116 359.156 59.2116C359.884 59.2116 360.247 58.9947 360.247 58.5608Z" fill="white"/>
<path d="M359.157 38.1693C357.097 38.1693 356.067 38.7116 356.067 39.7963C356.067 40.8809 357.085 41.5824 359.12 41.9005C360.114 42.0162 360.611 42.3272 360.611 42.8333C360.611 43.3395 360.126 43.5926 359.157 43.5926C354.915 43.5926 352.795 42.3272 352.795 39.7963C352.795 37.2654 354.915 36 359.157 36C363.398 36 365.518 37.1787 365.518 39.536C365.518 39.7529 364.973 39.8614 363.882 39.8614C362.792 39.8614 362.247 39.7529 362.247 39.536C362.247 38.6249 361.217 38.1693 359.157 38.1693Z" fill="white"/>
</svg>